<svg xmlns="http://www.w3.org/2000/svg" width="31" height="26" fill="none" viewBox="0 0 31 26">
  <path fill="#1DA1F2" d="M30.524 3.583c-1.113.493-2.31.826-3.567.977a6.228 6.228 0 0 0 2.731-3.437 12.4 12.4 0 0 1-3.944 1.506A6.212 6.212 0 0 0 15 6.882c0 .486.056.958.16 1.414a17.638 17.638 0 0 1-12.803-6.49 6.208 6.208 0 0 0-.84 3.122 6.212 6.212 0 0 0 2.763 5.17 6.197 6.197 0 0 1-2.813-.777v.08c0 3.01 2.14 5.52 4.982 6.091a6.258 6.258 0 0 1-2.805.107 6.215 6.215 0 0 0 5.803 4.312 12.465 12.465 0 0 1-7.715 2.66c-.501 0-.996-.03-1.483-.087a17.566 17.566 0 0 0 9.52 2.79c11.427 0 17.674-9.463 17.674-17.671 0-.267-.007-.536-.019-.803a12.627 12.627 0 0 0 3.097-3.213l.003-.004Z"/>
</svg>